<?xml version="1.0" encoding="UTF-8"?><svg id="Layer_2" xmlns="http://www.w3.org/2000/svg" viewBox="0 0 319.86 89.6"><defs><style>.cls-1{fill:#1e1e1e;}</style></defs><g id="Layer_1-2"><path class="cls-1" d="m69.43,76.05l-32.74-42.56,19.95-20.59c3.84-3.84,6.61-6.61,11.94-10.77h-5.55c-2.77,4.16-5.33,6.83-9.6,11.09L19.09,48.32v-23.36c0-9.92.32-14.72,1.17-22.82H0c.85,8.1,1.17,12.91,1.17,22.82v39.68c0,9.92-.32,14.72-1.17,22.82h20.26c-.85-8.1-1.17-12.91-1.17-22.82v-13.12l4.69-4.8,22.93,29.33c4.05,5.44,5.55,7.25,7.57,11.41h26.45c-5.23-4.05-7.68-6.72-11.31-11.41Z"/><path class="cls-1" d="m86.28,2.14c.85,8.1,1.18,12.91,1.18,22.82v39.68c0,9.92-.43,14.72-1.39,22.82h54.61l3.94-8.32c-14.18,5.33-20.58,6.08-31.68,6.08h-7.57V24.96c0-9.92.32-14.72,1.17-22.82h-20.27Z"/><path class="cls-1" d="m200.4,89.6c28.8,0,50.56-17.07,50.56-44.8S229.2,0,200.4,0s-50.45,17.18-50.45,44.8,21.65,44.8,50.45,44.8Zm0-2.24c-20.69,0-31.04-20.05-31.04-42.56S179.71,2.24,200.4,2.24s31.15,20.16,31.15,42.56-10.45,42.56-31.15,42.56Z"/><path class="cls-1" d="m259.49,2.14c.96,8.1,1.28,12.91,1.28,22.82v39.68c0,9.92-.32,14.72-1.28,22.82h56.42l3.94-8.32c-14.29,5.33-20.58,6.08-31.78,6.08h-9.39v-41.6h5.65c5.65,0,11.41,0,21.33,1.07v-4.38c-9.92,1.07-15.68,1.07-21.33,1.07h-5.65V4.38h9.17c5.97,0,14.61.96,23.46,6.4l6.19-8.64h-58.02Z"/></g></svg>